<svg width="680" height="596" viewBox="0 0 680 596" xmlns="http://www.w3.org/2000/svg">
<rect x="0" y="0" width="680" height="596" fill="#ffffff"/>

<rect x="180" y="40" width="320" height="56" rx="8" fill="#ede9fe" stroke="#7c3aed" stroke-width="1"/>
<text x="340" y="58" text-anchor="middle" dominant-baseline="central" font-family="Helvetica, Arial, sans-serif" font-size="14" font-weight="600" fill="#4c1d95">Master data produk</text>
<text x="340" y="76" text-anchor="middle" dominant-baseline="central" font-family="Helvetica, Arial, sans-serif" font-size="12" fill="#6b21a8">Produk &amp; kemasan (UOM)</text>

<line x1="340" y1="96" x2="340" y2="152" stroke="#6b7280" stroke-width="1.5"/>
<polygon points="335,152 345,152 340,160" fill="#6b7280"/>
<text x="355" y="128" text-anchor="start" font-family="Helvetica, Arial, sans-serif" font-size="12" fill="#4b5563">Dipakai saat transaksi</text>

<rect x="180" y="160" width="320" height="56" rx="8" fill="#dbeafe" stroke="#2563eb" stroke-width="1"/>
<text x="340" y="178" text-anchor="middle" dominant-baseline="central" font-family="Helvetica, Arial, sans-serif" font-size="14" font-weight="600" fill="#1e3a8a">Transaksi stok</text>
<text x="340" y="196" text-anchor="middle" dominant-baseline="central" font-family="Helvetica, Arial, sans-serif" font-size="12" fill="#1d4ed8">Pembelian, penjualan, retur, dll</text>

<line x1="340" y1="216" x2="340" y2="272" stroke="#6b7280" stroke-width="1.5"/>
<polygon points="335,272 345,272 340,280" fill="#6b7280"/>
<text x="355" y="248" text-anchor="start" font-family="Helvetica, Arial, sans-serif" font-size="12" fill="#4b5563">Diposting / dikonfirmasi</text>

<rect x="180" y="280" width="320" height="56" rx="8" fill="#ccfbf1" stroke="#0d9488" stroke-width="1"/>
<text x="340" y="298" text-anchor="middle" dominant-baseline="central" font-family="Helvetica, Arial, sans-serif" font-size="14" font-weight="600" fill="#134e4a">Stock movement</text>
<text x="340" y="316" text-anchor="middle" dominant-baseline="central" font-family="Helvetica, Arial, sans-serif" font-size="12" fill="#0f766e">Jejak audit tiap perubahan</text>

<line x1="340" y1="336" x2="340" y2="392" stroke="#6b7280" stroke-width="1.5"/>
<polygon points="335,392 345,392 340,400" fill="#6b7280"/>
<text x="355" y="368" text-anchor="start" font-family="Helvetica, Arial, sans-serif" font-size="12" fill="#4b5563">Update QtyOnHand</text>

<rect x="180" y="400" width="320" height="56" rx="8" fill="#dcfce7" stroke="#16a34a" stroke-width="1"/>
<text x="340" y="418" text-anchor="middle" dominant-baseline="central" font-family="Helvetica, Arial, sans-serif" font-size="14" font-weight="600" fill="#14532d">Stock card</text>
<text x="340" y="436" text-anchor="middle" dominant-baseline="central" font-family="Helvetica, Arial, sans-serif" font-size="12" fill="#15803d">Posisi stok saat ini</text>

<line x1="340" y1="456" x2="340" y2="512" stroke="#6b7280" stroke-width="1.5"/>
<polygon points="335,512 345,512 340,520" fill="#6b7280"/>
<text x="355" y="488" text-anchor="start" font-family="Helvetica, Arial, sans-serif" font-size="12" fill="#4b5563">Ditampilkan di</text>

<rect x="180" y="520" width="320" height="56" rx="8" fill="#f3f4f6" stroke="#6b7280" stroke-width="1"/>
<text x="340" y="538" text-anchor="middle" dominant-baseline="central" font-family="Helvetica, Arial, sans-serif" font-size="14" font-weight="600" fill="#374151">Laporan &amp; kartu stok</text>
<text x="340" y="556" text-anchor="middle" dominant-baseline="central" font-family="Helvetica, Arial, sans-serif" font-size="12" fill="#4b5563">Untuk cek &amp; audit stok</text>
</svg>
